<svg width="381" height="844" viewBox="0 0 381 844" fill="none" xmlns="http://www.w3.org/2000/svg">
<path d="M73.9983 841.982C30.0104 766.182 -13.5701 585.883 164.011 471.082C341.592 356.282 324.149 155.826 293.23 69.9479C283.7 49.7163 262.153 7.33613 252.204 -0.331394" stroke="white"/>
<path d="M40.0427 840.752C-3.94518 764.952 -47.5257 584.653 130.056 469.853C307.637 355.052 290.193 154.596 259.274 68.7181C249.744 48.4864 228.197 6.10627 218.249 -1.56125" stroke="white"/>
<path d="M105.034 842.192C61.0465 766.392 17.466 586.093 195.047 471.293C372.628 356.492 355.185 156.036 324.266 70.1581C314.736 49.9264 293.189 7.54627 283.24 -0.12125" stroke="white"/>
<path d="M141.034 842.435C97.0458 766.636 53.4653 586.337 231.046 471.536C408.628 356.736 391.184 156.28 360.265 70.4018C350.735 50.1701 329.188 7.78998 319.24 0.122463" stroke="white"/>
</svg>
