<svg width="898" height="608" viewBox="0 0 898 608" fill="none" xmlns="http://www.w3.org/2000/svg">
<path d="M1013.43 108.906C981.988 54.9311 904.012 54.9311 872.575 108.906L743.403 330.68C731.746 350.694 712.212 364.887 689.574 369.789L438.739 424.106C377.691 437.326 353.595 511.485 395.214 558.063L566.217 749.444C581.65 766.716 589.111 789.68 586.778 812.724L560.924 1068.07C554.632 1130.21 617.716 1176.05 674.875 1150.86L909.732 1047.36C930.927 1038.02 955.073 1038.02 976.268 1047.36L1211.13 1150.86C1268.28 1176.05 1331.37 1130.21 1325.08 1068.07L1299.22 812.724C1296.89 789.68 1304.35 766.716 1319.78 749.444L1490.79 558.063C1532.4 511.485 1508.31 437.326 1447.26 424.106L1196.43 369.789C1173.79 364.887 1154.25 350.694 1142.6 330.68L1013.43 108.906Z" stroke="white"/>
<path d="M1061.43 121.906C1029.99 67.9311 952.012 67.9311 920.575 121.906L791.403 343.68C779.746 363.694 760.212 377.887 737.574 382.789L486.739 437.106C425.691 450.326 401.595 524.485 443.214 571.063L614.217 762.444C629.65 779.716 637.111 802.68 634.778 825.724L608.924 1081.07C602.632 1143.21 665.716 1189.05 722.875 1163.86L957.732 1060.36C978.927 1051.02 1003.07 1051.02 1024.27 1060.36L1259.13 1163.86C1316.28 1189.05 1379.37 1143.21 1373.08 1081.07L1347.22 825.724C1344.89 802.68 1352.35 779.716 1367.78 762.444L1538.79 571.063C1580.4 524.485 1556.31 450.326 1495.26 437.106L1244.43 382.789C1221.79 377.887 1202.25 363.694 1190.6 343.68L1061.43 121.906Z" stroke="white"/>
<path d="M992.925 36.906C961.488 -17.0688 883.512 -17.0689 852.075 36.9059L699.789 298.365C688.131 318.38 668.597 332.572 645.96 337.474L350.238 401.512C289.191 414.731 265.095 488.89 306.713 535.468L508.317 761.096C523.749 778.368 531.211 801.332 528.877 824.376L498.398 1125.41C492.105 1187.56 555.189 1233.39 612.348 1208.2L889.232 1086.19C910.427 1076.85 934.573 1076.85 955.768 1086.19L1232.65 1208.2C1289.81 1233.39 1352.89 1187.56 1346.6 1125.41L1316.12 824.376C1313.79 801.332 1321.25 778.368 1336.68 761.096L1538.29 535.468C1579.91 488.89 1555.81 414.731 1494.76 401.512L1199.04 337.474C1176.4 332.572 1156.87 318.38 1145.21 298.365L992.925 36.906Z" stroke="white"/>
<path d="M999.425 -61.0941C967.988 -115.069 890.012 -115.069 858.575 -61.0941L679.618 246.156C667.96 266.171 648.426 280.363 625.789 285.265L278.276 360.518C217.228 373.737 193.133 447.896 234.751 494.474L471.662 759.618C487.095 776.89 494.556 799.853 492.223 822.897L456.405 1176.66C450.113 1238.8 513.197 1284.63 570.356 1259.45L895.732 1116.06C916.927 1106.72 941.073 1106.72 962.268 1116.06L1287.64 1259.45C1344.8 1284.63 1407.89 1238.8 1401.59 1176.66L1365.78 822.897C1363.44 799.853 1370.9 776.89 1386.34 759.618L1623.25 494.474C1664.87 447.896 1640.77 373.737 1579.72 360.518L1232.21 285.265C1209.57 280.363 1190.04 266.171 1178.38 246.156L999.425 -61.0941Z" stroke="white"/>
<path d="M993.425 -164.094C961.988 -218.069 884.012 -218.069 852.575 -164.094L643.229 195.33C631.572 215.344 612.038 229.537 589.401 234.439L182.877 322.47C121.829 335.69 97.7333 409.849 139.352 456.427L416.493 766.594C431.926 783.866 439.387 806.829 437.054 829.874L395.153 1243.7C388.861 1305.85 451.945 1351.68 509.104 1326.49L889.732 1158.76C910.927 1149.42 935.073 1149.42 956.268 1158.76L1336.9 1326.49C1394.06 1351.68 1457.14 1305.85 1450.85 1243.7L1408.95 829.874C1406.61 806.829 1414.07 783.866 1429.51 766.594L1706.65 456.427C1748.27 409.849 1724.17 335.69 1663.12 322.47L1256.6 234.439C1233.96 229.537 1214.43 215.344 1202.77 195.33L993.425 -164.094Z" stroke="white"/>
<path d="M1112.93 163.906C1081.49 109.931 1003.51 109.931 972.075 163.906L853.087 368.196C841.429 388.211 821.895 402.403 799.258 407.305L568.197 457.34C507.149 470.56 483.054 544.719 524.672 591.297L682.194 767.59C697.627 784.862 705.088 807.826 702.755 830.87L678.94 1066.08C672.647 1128.23 735.731 1174.06 792.89 1148.87L1009.23 1053.54C1030.43 1044.2 1054.57 1044.2 1075.77 1053.54L1292.11 1148.87C1349.27 1174.06 1412.35 1128.23 1406.06 1066.08L1382.25 830.87C1379.91 807.826 1387.37 784.862 1402.81 767.59L1560.33 591.297C1601.95 544.719 1577.85 470.56 1516.8 457.34L1285.74 407.305C1263.1 402.403 1243.57 388.211 1231.91 368.196L1112.93 163.906Z" stroke="white"/>
<path d="M1178.43 220.906C1146.99 166.931 1069.01 166.931 1037.57 220.906L933.296 399.942C921.639 419.956 902.105 434.148 879.467 439.051L676.97 482.901C615.922 496.12 591.827 570.279 633.445 616.857L771.494 771.357C786.927 788.629 794.388 811.593 792.055 834.637L771.184 1040.77C764.892 1102.92 827.975 1148.75 885.134 1123.56L1074.73 1040.01C1095.93 1030.67 1120.07 1030.67 1141.27 1040.01L1330.87 1123.56C1388.02 1148.75 1451.11 1102.92 1444.82 1040.77L1423.95 834.637C1421.61 811.593 1429.07 788.629 1444.51 771.357L1582.55 616.857C1624.17 570.279 1600.08 496.12 1539.03 482.901L1336.53 439.051C1313.9 434.148 1294.36 419.956 1282.7 399.942L1178.43 220.906Z" stroke="white"/>
<path d="M1275.43 286.906C1243.99 232.931 1166.01 232.931 1134.57 286.906L1030.3 465.942C1018.64 485.956 999.105 500.148 976.467 505.051L773.97 548.901C712.922 562.12 688.827 636.279 730.445 682.857L868.494 837.357C883.927 854.629 891.388 877.593 889.055 900.637L868.184 1106.77C861.892 1168.92 924.975 1214.75 982.134 1189.56L1171.73 1106.01C1192.93 1096.67 1217.07 1096.67 1238.27 1106.01L1427.87 1189.56C1485.02 1214.75 1548.11 1168.92 1541.82 1106.77L1520.95 900.637C1518.61 877.593 1526.07 854.629 1541.51 837.357L1679.55 682.857C1721.17 636.279 1697.08 562.12 1636.03 548.901L1433.53 505.051C1410.9 500.148 1391.36 485.956 1379.7 465.942L1275.43 286.906Z" stroke="white"/>
</svg>
