<svg width="41" height="41" viewBox="0 0 41 41" fill="none" xmlns="http://www.w3.org/2000/svg">
<path fill-rule="evenodd" clip-rule="evenodd" d="M32.783 39.9974C32.0664 40.4466 31.0147 40.7434 30.234 40.7434C28.7005 40.7434 27.2419 39.5002 26.3294 37.5352L26.3278 37.5673C25.2588 35.4098 23.6209 34.5437 21.5872 34.5437C19.5914 34.5437 17.9093 35.7546 16.3354 37.7597L16.6601 37.3508C15.1091 39.2998 13.6056 41 11.1444 41C8.08755 41 5.29691 39.829 5.12467 35.0088L5.12073 34.9286C5.33722 29.0016 4.22949 23.283 1.71618 17.9334L1.64349 17.7811C0.241851 15.2146 -0.358632 12.1988 0.217352 9.30345C1.66482 2.03701 10.9359 -2.21378 16.7565 1.19488H16.7305C18.1977 2.06108 19.9011 2.55037 21.716 2.55037C22.898 2.55037 24.0318 2.34185 25.0842 1.95688C27.193 1.29118 27.5746 1.18685 28.7724 1.18685C34.9937 1.18685 39.5715 6.98557 40.5552 13.0088L40.4793 12.6881C40.9368 14.7574 41 16.7785 41 18.8879C41 26.6997 38.3326 35.5943 33.2033 39.6766C33.084 39.7889 32.9409 39.9012 32.783 39.9974C32.9244 39.8932 33.065 39.7889 33.2033 39.6766C33.2191 39.6606 33.2349 39.6446 33.2507 39.6285L32.783 39.9974ZM28.7415 5.04469C30.208 4.57952 30.4727 4.51532 31.3054 4.51532C35.6265 4.51532 38.8059 8.54154 39.4893 12.7201L39.4363 12.4955C39.754 13.9392 39.7982 15.3427 39.7982 16.8025C39.7982 22.2243 37.9462 28.408 34.3837 31.2392C34.3008 31.3194 34.2019 31.3916 34.0913 31.4638C34.1901 31.3916 34.2873 31.3194 34.3837 31.2392C34.3947 31.2312 34.4058 31.2232 34.4161 31.2072L34.0913 31.4638C33.5928 31.7766 32.8628 31.9771 32.3208 31.9771C31.2557 31.9771 30.2428 31.1189 29.6091 29.7554L29.6076 29.7795C28.8656 28.2797 27.7278 27.6782 26.3152 27.6782C24.9294 27.6782 23.7608 28.5203 22.6681 29.9159L22.8932 29.6271C21.8164 30.9826 20.7719 32.1615 19.0628 32.1615C16.9398 32.1615 15.0009 31.3515 14.8816 27.999L14.8793 27.9428C15.0294 23.8284 14.2606 19.8583 12.5145 16.1369L12.4639 16.0406C11.4905 14.2521 11.0734 12.1588 11.4739 10.1457C12.4789 5.10083 18.9175 2.14931 22.9605 4.51532H22.9422C23.9615 5.11686 25.1442 5.45375 26.4053 5.45375C27.2245 5.45375 28.0116 5.30937 28.7415 5.04469ZM28.7415 5.04469L28.3686 5.16503L28.8751 4.99652C28.8308 5.01257 28.7866 5.02866 28.7415 5.04469ZM25.0842 1.95688C24.9152 2.01302 24.735 2.06912 24.543 2.12527L25.273 1.88462C25.2098 1.90868 25.1474 1.93281 25.0842 1.95688Z" fill="#494949"/>
</svg>
