<svg width="64" height="64" viewBox="0 0 64 64" fill="#000000" xmlns="http://www.w3.org/2000/svg">
<path d="M54.6499 9.30417C51.7025 6.34288 48.1926 3.99516 44.3247 2.39781C40.4567 0.800458 36.3081 -0.014577 32.1205 0.000197322C14.5736 0.000197322 0.273229 14.2322 0.257157 31.7041C0.257157 37.3001 1.72777 42.7441 4.50427 47.5641L0 64L16.892 59.592C21.5651 62.1237 26.8003 63.4506 32.1205 63.452H32.1366C49.6876 63.452 63.9839 49.22 64 31.7321C64.004 27.5643 63.1796 23.4369 61.5741 19.5877C59.9687 15.7384 57.6181 12.2435 54.6499 9.30417ZM32.1205 58.084C27.3752 58.0856 22.717 56.8144 18.6359 54.404L17.6715 53.828L7.65042 56.444L10.3265 46.7121L9.69965 45.7081C7.04694 41.5094 5.64398 36.6482 5.65344 31.6881C5.65344 17.1841 17.5349 5.35218 32.1366 5.35218C35.6152 5.34597 39.0607 6.02528 42.2743 7.35094C45.4879 8.6766 48.4062 10.6224 50.8609 13.0762C53.3241 15.5203 55.2768 18.4258 56.6064 21.6251C57.936 24.8243 58.6162 28.2539 58.6077 31.7161C58.5916 46.2721 46.7102 58.084 32.1205 58.084ZM46.6459 38.3481C45.8543 37.9521 41.9447 36.0361 41.2094 35.7641C40.4781 35.5041 39.9437 35.3681 39.4214 36.1601C38.887 36.9481 37.3601 38.7441 36.902 39.2601C36.444 39.7921 35.9699 39.8521 35.1743 39.4601C34.3827 39.0601 31.8152 38.2281 28.7775 35.5201C26.4068 33.4201 24.8197 30.8201 24.3455 30.0321C23.8875 29.2401 24.3013 28.8161 24.6991 28.4201C25.0487 28.0681 25.4907 27.4921 25.8885 27.0361C26.2903 26.5801 26.4229 26.2441 26.6841 25.7161C26.9452 25.1801 26.8207 24.7241 26.6238 24.3281C26.4229 23.9321 24.8358 20.0241 24.1647 18.4481C23.5218 16.8921 22.8669 17.1081 22.3767 17.0881C21.9186 17.0601 21.3842 17.0601 20.8498 17.0601C20.4463 17.0701 20.0491 17.163 19.6833 17.3331C19.3176 17.5031 18.991 17.7465 18.7243 18.0481C17.993 18.8401 15.9478 20.7561 15.9478 24.6641C15.9478 28.5721 18.8006 32.3281 19.2024 32.8601C19.5962 33.3921 24.8036 41.3881 32.7956 44.8281C34.6841 45.6481 36.1708 46.1321 37.332 46.5001C39.2406 47.1081 40.9643 47.0161 42.3385 46.8201C43.8654 46.5881 47.0437 44.9001 47.7147 43.0481C48.3737 41.1921 48.3737 39.6081 48.1728 39.2761C47.9759 38.9401 47.4415 38.7441 46.6459 38.3481Z" fill="#000000"/>
</svg>
